<?xml version="1.0" standalone="no"?>
<!DOCTYPE svg PUBLIC "-//W3C//DTD SVG 20010904//EN"
 "http://www.w3.org/TR/2001/REC-SVG-20010904/DTD/svg10.dtd">
<svg version="1.0" xmlns="http://www.w3.org/2000/svg"
 width="920.000000pt" height="430.000000pt" viewBox="0 0 920.000000 430.000000"
 preserveAspectRatio="xMidYMid meet">

<g transform="translate(0.000000,430.000000) scale(0.100000,-0.100000)"
fill="#000000" stroke="none">
<path d="M1213 4145 c-18 -19 -33 -44 -33 -55 0 -25 -22 -50 -44 -50 -9 0 -16
-4 -16 -10 0 -5 -8 -10 -18 -10 -10 0 -24 -9 -32 -20 -8 -11 -22 -20 -32 -20
-10 0 -18 -4 -18 -10 0 -5 -9 -10 -20 -10 -11 0 -20 -4 -20 -10 0 -5 -9 -10
-20 -10 -11 0 -20 -4 -20 -10 0 -5 -9 -10 -20 -10 -11 0 -20 5 -20 10 0 14
-37 12 -44 -2 -5 -10 -7 -10 -12 0 -12 25 -64 2 -64 -28 0 -17 26 -40 44 -40
9 0 16 5 16 10 0 6 5 10 10 10 6 0 10 -83 10 -230 0 -147 4 -230 10 -230 6 0
10 -18 10 -40 0 -22 5 -40 10 -40 6 0 10 -9 10 -20 0 -11 5 -20 10 -20 6 0 10
12 10 26 0 14 7 32 15 40 13 14 17 14 30 0 8 -8 15 -22 15 -30 0 -9 5 -16 10
-16 6 0 10 -18 10 -40 0 -22 -4 -40 -10 -40 -5 0 -10 -13 -10 -30 0 -16 -4
-30 -10 -30 -5 0 -10 -18 -10 -40 0 -22 -4 -40 -10 -40 -5 0 -10 -13 -10 -30
0 -16 -4 -30 -10 -30 -5 0 -10 -13 -10 -30 0 -16 -4 -30 -10 -30 -5 0 -10 -13
-10 -30 0 -16 -4 -30 -10 -30 -5 0 -10 -13 -10 -30 0 -16 -4 -30 -10 -30 -5 0
-10 -13 -10 -30 0 -16 -4 -30 -10 -30 -5 0 -10 -13 -10 -30 0 -16 -4 -30 -10
-30 -5 0 -10 -13 -10 -30 0 -16 -4 -30 -10 -30 -5 0 -10 -13 -10 -30 0 -16 -4
-30 -10 -30 -5 0 -10 -13 -10 -30 0 -16 -4 -30 -10 -30 -5 0 -10 -13 -10 -30
0 -16 -4 -30 -10 -30 -5 0 -10 -12 -10 -26 0 -14 -6 -32 -14 -40 -17 -16 -66
-19 -66 -4 0 6 -18 10 -40 10 -22 0 -40 -4 -40 -10 0 -5 -7 -10 -15 -10 -20 0
-85 65 -85 85 0 8 -4 15 -10 15 -5 0 -10 9 -10 20 0 11 -4 20 -10 20 -5 0 -10
-9 -10 -20 0 -13 -7 -20 -20 -20 -11 0 -20 -4 -20 -10 0 -5 9 -10 20 -10 11 0
20 -4 20 -10 0 -5 7 -10 15 -10 21 0 93 -72 77 -78 -7 -2 -12 -12 -12 -23 0
-10 -4 -19 -10 -19 -5 0 -10 -18 -10 -40 0 -29 -4 -40 -15 -40 -20 0 -65 -45
-65 -65 0 -8 -4 -15 -10 -15 -5 0 -10 -11 -10 -25 0 -26 -40 -75 -61 -75 -6 0
-24 14 -39 30 -15 17 -35 30 -44 30 -9 0 -16 5 -16 10 0 6 -13 10 -28 10 -16
0 -34 8 -42 20 -17 23 -55 26 -76 6 -8 -8 -14 -31 -14 -50 0 -20 -4 -36 -10
-36 -5 0 -10 -9 -10 -20 0 -12 -7 -20 -16 -20 -45 0 -44 35 -44 -1054 l0
-1026 4600 0 4600 0 0 1016 c0 1078 1 1044 -44 1044 -9 0 -16 5 -16 10 0 6
-18 10 -40 10 -29 0 -40 4 -40 15 0 20 -45 65 -65 65 -8 0 -15 5 -15 10 0 6
-13 10 -30 10 -16 0 -30 5 -30 10 0 6 -18 10 -40 10 -33 0 -40 3 -40 20 0 11
-4 20 -10 20 -5 0 -10 9 -10 20 0 11 -4 20 -10 20 -5 0 -10 18 -10 40 0 38
-13 54 -23 28 -4 -10 -8 -9 -16 2 -5 8 -14 11 -18 6 -4 -5 -2 -11 5 -13 6 -3
12 -12 12 -22 0 -9 9 -23 20 -31 11 -8 20 -22 20 -32 0 -10 5 -18 10 -18 6 0
10 -9 10 -20 0 -11 5 -20 10 -20 6 0 10 -9 10 -20 0 -11 -2 -20 -5 -20 -13 0
-95 91 -95 105 0 8 -4 15 -10 15 -5 0 -10 9 -10 20 0 11 -4 20 -10 20 -5 0
-10 -9 -10 -20 0 -13 -7 -20 -20 -20 -11 0 -20 -4 -20 -10 0 -5 9 -10 20 -10
11 0 20 -4 20 -10 0 -5 7 -10 15 -10 20 0 105 -85 105 -105 0 -8 -4 -15 -10
-15 -5 0 -10 -9 -10 -20 0 -12 -7 -20 -16 -20 -8 0 -33 -18 -54 -40 -24 -24
-48 -40 -62 -40 -13 0 -30 -9 -38 -20 -8 -12 -26 -20 -42 -20 -15 0 -28 -4
-28 -10 0 -5 -9 -10 -20 -10 -11 0 -20 5 -20 10 0 6 -9 10 -20 10 -13 0 -20 7
-20 20 0 11 5 20 10 20 6 0 10 9 10 20 0 11 5 20 10 20 6 0 10 14 10 30 0 17
5 30 10 30 6 0 10 14 10 30 0 17 5 30 10 30 6 0 10 27 10 60 0 33 -4 60 -10
60 -5 0 -10 9 -10 20 0 11 -4 20 -10 20 -5 0 -10 9 -10 20 0 11 -4 20 -10 20
-5 0 -10 7 -10 16 0 15 -23 44 -34 44 -3 0 -6 -9 -6 -20 0 -11 -4 -20 -10 -20
-5 0 -10 -16 -10 -36 0 -19 -6 -42 -14 -50 -20 -19 -26 -18 -26 6 0 11 5 20
10 20 6 0 10 18 10 40 0 22 5 40 10 40 15 0 12 29 -4 46 -8 8 -26 14 -40 14
-14 0 -26 5 -26 10 0 6 -13 10 -30 10 -16 0 -30 5 -30 10 0 6 -18 10 -40 10
-22 0 -40 -4 -40 -10 0 -5 -9 -10 -20 -10 -11 0 -20 -3 -20 -6 0 -13 30 -34
50 -34 12 0 35 -13 50 -30 15 -16 35 -30 44 -30 21 0 22 -85 2 -106 -31 -31
-106 -10 -106 30 0 9 -4 16 -10 16 -5 0 -10 9 -10 20 0 11 -4 20 -10 20 -5 0
-10 9 -10 20 0 11 -4 20 -10 20 -5 0 -10 9 -10 20 0 11 -4 20 -10 20 -5 0 -10
9 -10 20 0 11 -4 20 -10 20 -5 0 -10 9 -10 20 0 11 -4 20 -10 20 -5 0 -10 9
-10 20 0 11 -4 20 -10 20 -5 0 -10 9 -10 20 0 11 -4 20 -10 20 -5 0 -10 9 -10
20 0 11 -4 20 -10 20 -5 0 -10 9 -10 20 0 11 -4 20 -10 20 -5 0 -10 9 -10 20
0 11 -4 20 -10 20 -5 0 -10 9 -10 20 0 11 -4 20 -10 20 -5 0 -10 9 -10 20 0
11 -4 20 -10 20 -5 0 -10 9 -10 20 0 11 -4 20 -10 20 -5 0 -10 16 -10 36 0 29
-8 43 -41 75 l-41 40 21 18 c11 10 21 21 21 25 0 15 -33 4 -55 -19 -21 -20
-25 -34 -25 -80 0 -43 3 -55 16 -55 19 0 44 -24 44 -42 0 -8 9 -20 20 -28 11
-8 20 -22 20 -32 0 -10 5 -18 10 -18 6 0 10 -9 10 -20 0 -11 5 -20 10 -20 6 0
10 -9 10 -20 0 -11 5 -20 10 -20 6 0 10 -9 10 -20 0 -11 5 -20 10 -20 6 0 10
-9 10 -20 0 -11 5 -20 10 -20 6 0 10 -9 10 -20 0 -11 5 -20 10 -20 6 0 10 -9
10 -20 0 -11 5 -20 10 -20 6 0 10 -9 10 -20 0 -11 5 -20 10 -20 6 0 10 -9 10
-20 0 -11 5 -20 10 -20 6 0 10 -9 10 -20 0 -11 5 -20 10 -20 6 0 10 -9 10 -20
0 -11 5 -20 10 -20 6 0 10 -9 10 -20 0 -11 5 -20 10 -20 6 0 10 -9 10 -20 0
-11 5 -20 10 -20 15 0 12 -70 -4 -86 -19 -18 -93 -18 -112 0 -17 17 -20 166
-4 166 6 0 10 9 10 20 0 11 -4 20 -10 20 -5 0 -10 -4 -10 -10 0 -5 -7 -10 -16
-10 -20 0 -44 -24 -44 -44 0 -9 -4 -16 -10 -16 -5 0 -10 -9 -10 -20 0 -11 -4
-20 -10 -20 -5 0 -10 -13 -10 -30 0 -16 -4 -30 -10 -30 -15 0 -12 -29 4 -46 8
-8 22 -14 30 -14 9 0 16 -4 16 -10 0 -5 -13 -10 -30 -10 -23 0 -30 -4 -30 -20
0 -11 5 -20 10 -20 6 0 10 -12 10 -26 0 -29 31 -67 38 -46 3 11 42 18 42 7 0
-15 -52 -55 -71 -55 -11 0 -34 14 -49 30 -21 23 -37 30 -64 30 -20 0 -36 5
-36 10 0 6 -7 10 -16 10 -40 0 -44 19 -44 244 0 206 1 216 19 216 11 0 21 -6
23 -12 5 -15 38 13 38 32 0 19 -33 47 -38 32 -2 -6 -17 -12 -33 -12 -22 0 -29
5 -29 20 0 11 -4 20 -10 20 -6 0 -10 27 -10 60 0 33 4 60 10 60 15 0 12 29 -4
46 -18 18 -34 18 -52 0 -16 -17 -19 -46 -4 -46 6 0 10 -27 10 -60 0 -33 -4
-60 -10 -60 -5 0 -10 -9 -10 -20 0 -15 -7 -20 -29 -20 -16 0 -31 6 -33 12 -5
15 -38 -13 -38 -32 0 -19 33 -47 38 -32 2 6 12 12 23 12 16 0 19 -7 19 -40 0
-22 5 -40 10 -40 6 0 10 -18 10 -40 0 -22 -4 -40 -10 -40 -5 0 -10 -13 -10
-30 0 -16 5 -30 10 -30 6 0 10 -9 10 -20 0 -11 5 -20 10 -20 6 0 10 -4 10 -10
0 -5 -9 -10 -20 -10 -13 0 -20 -7 -20 -20 0 -11 5 -20 10 -20 6 0 10 -9 10
-20 0 -11 -4 -20 -10 -20 -5 0 -10 -18 -10 -40 0 -33 -3 -40 -20 -40 -11 0
-20 -4 -20 -10 0 -5 -9 -10 -20 -10 -11 0 -20 -4 -20 -10 0 -5 -9 -10 -20 -10
-11 0 -20 -4 -20 -10 0 -5 -9 -10 -20 -10 -13 0 -20 -7 -20 -20 0 -12 -7 -20
-16 -20 -8 0 -33 -18 -54 -40 -25 -26 -47 -40 -64 -40 -14 0 -26 -4 -26 -10 0
-5 -13 -10 -30 -10 -16 0 -30 5 -30 10 0 6 -7 10 -16 10 -9 0 -29 14 -44 30
-27 29 -80 42 -80 20 0 -15 -29 -12 -46 4 -8 8 -14 22 -14 30 0 9 -4 16 -10
16 -5 0 -10 7 -10 15 0 19 -44 65 -62 65 -8 0 -20 -9 -28 -20 -20 -28 -37 -25
-70 10 -15 17 -33 30 -40 30 -6 0 -29 -18 -50 -40 -43 -45 -59 -49 -80 -20 -8
11 -22 20 -32 20 -10 0 -18 5 -18 10 0 6 -18 10 -40 10 -22 0 -40 -4 -40 -10
0 -5 -9 -10 -20 -10 -11 0 -20 -4 -20 -10 0 -5 -13 -10 -30 -10 -16 0 -30 -4
-30 -10 0 -5 -13 -10 -30 -10 -16 0 -30 5 -30 10 0 6 -17 10 -38 10 -26 0 -42
-6 -52 -20 -8 -12 -26 -20 -42 -20 -15 0 -28 -4 -28 -10 0 -5 -16 -10 -35 -10
-38 0 -85 36 -85 65 0 8 -4 15 -10 15 -5 0 -10 14 -10 30 0 17 -4 30 -10 30
-5 0 -10 5 -10 10 0 6 14 10 30 10 17 0 30 -4 30 -10 0 -5 14 -10 30 -10 30 0
40 14 18 24 -10 5 -10 7 -1 12 23 10 13 24 -17 24 -16 0 -30 -4 -30 -10 0 -15
-70 -12 -86 4 -16 17 -19 66 -4 66 6 0 10 8 10 18 0 10 9 24 20 32 11 8 20 22
20 31 0 10 6 19 13 22 6 2 8 8 4 13 -4 5 -13 2 -18 -6 -8 -11 -12 -12 -16 -2
-10 26 -23 10 -23 -28 0 -22 -4 -40 -10 -40 -5 0 -10 -7 -10 -16 0 -22 -32
-53 -38 -36 -4 14 -82 17 -82 2 0 -5 -7 -10 -16 -10 -20 0 -44 -24 -44 -44 0
-9 -4 -16 -10 -16 -5 0 -10 -18 -10 -40 0 -33 -3 -40 -20 -40 -11 0 -20 -4
-20 -10 0 -5 -13 -10 -30 -10 -16 0 -30 -4 -30 -10 0 -5 -21 -10 -46 -10 -38
0 -51 -5 -74 -30 -15 -16 -33 -30 -39 -30 -15 0 -61 46 -61 60 0 25 -49 60
-85 60 -19 0 -35 -4 -35 -10 0 -18 -35 -11 -50 10 -8 11 -26 20 -40 20 -14 0
-32 -9 -40 -20 -8 -11 -26 -20 -40 -20 -14 0 -32 -9 -40 -20 -20 -27 -80 -27
-100 0 -10 14 -26 20 -52 20 -21 0 -38 -4 -38 -10 0 -5 -9 -10 -19 -10 -11 0
-21 -6 -24 -12 -2 -8 -15 -1 -34 20 -17 17 -38 32 -47 32 -9 0 -16 7 -16 16 0
19 -24 44 -42 44 -8 0 -20 9 -28 20 -18 26 -42 26 -60 0 -15 -21 -70 -28 -70
-10 0 6 -22 10 -50 10 -27 0 -50 -4 -50 -10 0 -5 -13 -10 -30 -10 -16 0 -30
-4 -30 -10 0 -5 -13 -10 -30 -10 -16 0 -30 -4 -30 -10 0 -5 -9 -10 -20 -10
-11 0 -20 5 -20 10 0 6 -9 10 -20 10 -11 0 -20 5 -20 10 0 6 -9 10 -20 10 -16
0 -20 7 -20 30 0 17 5 30 10 30 6 0 10 14 10 30 0 30 -14 40 -24 18 -5 -10 -7
-10 -12 0 -10 22 -24 12 -24 -18 0 -16 5 -30 10 -30 6 0 10 -12 10 -26 0 -26
-20 -54 -40 -54 -16 0 -60 47 -60 65 0 8 -4 15 -10 15 -5 0 -10 9 -10 20 0 26
-6 25 -35 -5 -30 -29 -31 -35 -5 -35 11 0 20 -4 20 -10 0 -5 7 -10 15 -10 21
0 93 -72 77 -78 -7 -2 -12 -12 -12 -23 0 -10 -4 -19 -10 -19 -5 0 -10 -7 -10
-16 0 -19 -24 -44 -42 -44 -8 0 -20 9 -28 20 -8 11 -26 20 -40 20 -14 0 -32
-9 -40 -20 -10 -14 -26 -20 -50 -20 -24 0 -40 -6 -50 -20 -19 -26 -61 -26 -80
0 -8 11 -22 20 -32 20 -13 0 -18 8 -18 30 0 17 5 30 10 30 6 0 10 14 10 30 0
17 5 30 10 30 6 0 10 14 10 30 0 17 5 30 10 30 6 0 10 14 10 30 0 17 -4 30
-10 30 -5 0 -10 14 -10 30 0 17 -4 30 -10 30 -5 0 -10 18 -10 40 0 22 -4 40
-10 40 -5 0 -10 14 -10 30 0 17 5 30 10 30 6 0 10 27 10 60 0 33 -4 60 -10 60
-5 0 -10 9 -10 20 0 11 -4 20 -10 20 -5 0 -10 8 -10 18 0 10 -9 24 -20 32 -21
15 -28 50 -10 50 6 0 10 7 10 16 0 18 -23 44 -40 44 -17 0 -40 -26 -40 -44 0
-9 5 -16 10 -16 6 0 10 -9 10 -20 0 -17 -7 -20 -40 -20 -22 0 -40 -4 -40 -10
0 -5 -4 -10 -10 -10 -5 0 -10 18 -10 40 0 30 4 40 16 40 8 0 22 7 30 15 14 13
14 17 0 30 -8 8 -22 15 -30 15 -9 0 -16 5 -16 10 0 6 9 10 20 10 11 0 20 5 20
10 0 6 7 10 15 10 20 0 105 85 105 105 0 8 5 15 10 15 6 0 10 9 10 20 0 12 7
20 16 20 9 0 29 13 44 30 15 17 33 30 39 30 12 0 81 64 81 75 0 3 -21 5 -46 5
-40 0 -50 -5 -84 -40 -44 -45 -50 -48 -50 -20 0 11 -4 20 -10 20 -5 0 -10 7
-10 15 0 20 -65 85 -85 85 -8 0 -15 5 -15 10 0 6 -7 10 -16 10 -8 0 -22 6 -30
14 -16 17 -19 46 -4 46 15 0 12 29 -4 46 -18 18 -34 18 -52 0 -16 -17 -19 -46
-4 -46 15 0 12 -29 -4 -46 -8 -8 -22 -14 -30 -14 -9 0 -16 -4 -16 -10 0 -5 -7
-10 -15 -10 -20 0 -85 -65 -85 -85 0 -8 -4 -15 -10 -15 -5 0 -10 -9 -10 -20 0
-28 -6 -25 -50 20 -34 35 -44 40 -84 40 -25 0 -46 -2 -46 -5 0 -11 69 -75 81
-75 6 0 24 -13 39 -30 15 -16 35 -30 44 -30 9 0 16 -8 16 -20 0 -11 5 -20 10
-20 6 0 10 -7 10 -15 0 -20 85 -105 105 -105 8 0 15 -4 15 -10 0 -5 9 -10 20
-10 11 0 20 -4 20 -10 0 -5 -7 -10 -16 -10 -8 0 -22 -7 -30 -15 -14 -13 -14
-17 0 -30 8 -8 22 -15 30 -15 12 0 16 -10 16 -40 0 -30 -4 -40 -16 -40 -8 0
-42 -27 -74 -60 -54 -55 -90 -75 -90 -50 0 6 -30 10 -70 10 -38 0 -70 -3 -70
-6 0 -4 10 -15 22 -26 19 -16 20 -21 8 -29 -11 -8 -12 -12 -2 -16 6 -2 12 -12
12 -22 0 -9 9 -23 20 -31 11 -8 20 -21 20 -28 0 -7 18 -31 40 -52 l40 -38 0
-114 c0 -102 2 -115 20 -128 28 -20 25 -30 -10 -30 -16 0 -30 5 -30 10 0 6
-22 10 -50 10 -27 0 -50 5 -50 10 0 6 -18 10 -40 10 -22 0 -40 -4 -40 -10 0
-5 -18 -10 -40 -10 -22 0 -40 -4 -40 -10 0 -5 -17 -10 -38 -10 -26 0 -42 6
-52 20 -15 21 -70 28 -70 10 0 -5 -9 -10 -20 -10 -11 0 -20 -4 -20 -10 0 -5
-18 -10 -40 -10 -22 0 -40 -4 -40 -10 0 -5 -12 -10 -26 -10 -16 0 -37 -12 -54
-30 -34 -37 -87 -41 -110 -10 -8 11 -22 20 -32 20 -10 0 -18 5 -18 10 0 6 -9
10 -20 10 -11 0 -20 5 -20 10 0 6 -16 10 -36 10 -29 0 -44 -8 -84 -50 -33 -34
-57 -50 -74 -50 -14 0 -26 -4 -26 -10 0 -18 -35 -11 -50 10 -12 17 -26 20 -82
20 -39 0 -68 4 -68 10 0 6 -18 10 -40 10 -22 0 -40 5 -40 10 0 6 -18 10 -40
10 -22 0 -40 5 -40 10 0 6 -22 10 -48 10 -36 0 -51 5 -62 20 -15 21 -70 28
-70 10 0 -5 -18 -10 -40 -10 -22 0 -40 2 -40 5 0 13 71 75 85 75 8 0 15 5 15
10 0 6 9 10 20 10 26 0 25 6 -5 35 -29 30 -35 31 -35 5 0 -11 -4 -20 -10 -20
-5 0 -10 -7 -10 -15 0 -20 -65 -85 -85 -85 -11 0 -15 12 -15 50 0 28 5 50 10
50 6 0 10 14 10 30 0 30 -14 40 -24 18 -5 -10 -7 -10 -12 0 -10 22 -24 12 -24
-18 0 -16 5 -30 10 -30 6 0 10 -27 10 -60 l0 -60 -30 0 c-16 0 -30 -4 -30 -10
0 -6 -27 -10 -60 -10 -33 0 -60 -4 -60 -10 0 -5 -13 -10 -30 -10 -16 0 -30 -4
-30 -10 0 -5 -9 -10 -20 -10 -11 0 -20 -4 -20 -10 0 -22 -53 -9 -80 20 -15 16
-35 30 -44 30 -9 0 -16 5 -16 10 0 6 -8 10 -18 10 -10 0 -24 9 -32 20 -10 14
-26 20 -52 20 -21 0 -38 -4 -38 -10 0 -5 -16 -10 -36 -10 -27 0 -43 7 -64 30
-15 17 -33 30 -40 30 -6 0 -18 7 -26 15 -13 13 -11 19 21 50 31 32 37 34 50
21 8 -8 15 -22 15 -30 0 -11 9 -16 30 -16 27 0 30 3 30 30 0 21 -5 30 -16 30
-22 0 -44 25 -44 50 0 29 44 70 75 70 23 0 25 4 25 40 l0 40 -40 0 c-36 0 -40
-2 -40 -25 0 -31 -41 -75 -70 -75 -25 0 -50 22 -50 44 0 11 -9 16 -30 16 -27
0 -30 -3 -30 -30 0 -21 5 -30 16 -30 22 0 53 -32 36 -38 -6 -2 -12 -10 -12
-18 0 -24 -47 -64 -75 -64 -23 0 -25 4 -25 40 0 22 -4 40 -10 40 -5 0 -10 8
-10 18 0 10 -9 24 -20 32 -11 8 -20 20 -20 27 0 19 86 103 105 103 8 0 15 5
15 10 0 6 9 10 20 10 26 0 25 6 -5 35 -29 30 -35 31 -35 5 0 -11 -4 -20 -10
-20 -5 0 -10 -7 -10 -15 0 -14 -82 -105 -95 -105 -3 0 -5 18 -5 40 0 22 5 40
10 40 6 0 10 14 10 30 0 17 5 30 10 30 6 0 10 14 10 30 0 17 5 30 10 30 6 0
10 14 10 30 0 17 5 30 10 30 6 0 10 14 10 30 0 17 5 30 10 30 6 0 10 14 10 30
0 17 5 30 10 30 6 0 10 14 10 30 0 17 5 30 10 30 6 0 10 14 10 30 0 17 5 30
10 30 6 0 10 14 10 30 0 17 5 30 10 30 6 0 10 14 10 30 0 17 5 30 10 30 6 0
10 14 10 30 0 17 5 30 10 30 6 0 10 14 10 30 0 17 5 30 10 30 6 0 10 18 10 40
0 43 4 47 26 26 17 -17 21 -186 4 -186 -6 0 -10 -37 -10 -90 0 -53 4 -90 10
-90 6 0 10 9 10 20 0 11 5 20 10 20 6 0 10 18 10 40 0 22 5 40 10 40 6 0 10 8
10 18 0 10 9 24 20 32 11 8 20 22 20 32 0 11 7 18 20 18 19 0 20 -7 20 -160 0
-100 4 -160 10 -160 6 0 10 27 10 60 0 33 4 60 10 60 6 0 10 27 10 60 0 33 4
60 10 60 6 0 10 14 10 30 0 17 5 30 10 30 6 0 10 -18 10 -40 0 -22 -4 -40 -10
-40 -6 0 -10 -53 -10 -140 0 -87 4 -140 10 -140 6 0 10 -30 10 -70 0 -38 3
-70 6 -70 10 0 34 28 34 40 0 12 24 40 34 40 3 0 6 -40 6 -90 0 -53 4 -90 10
-90 6 0 10 -9 10 -20 0 -11 5 -20 10 -20 6 0 10 77 10 210 0 133 4 210 10 210
6 0 10 63 10 170 0 107 -4 170 -10 170 -6 0 -10 30 -10 70 0 40 -4 70 -10 70
-5 0 -10 18 -10 40 0 22 5 40 10 40 6 0 10 9 10 20 0 11 5 20 10 20 6 0 10 9
10 20 0 11 5 20 10 20 6 0 10 9 10 20 0 11 5 20 10 20 6 0 10 9 10 20 0 11 5
20 10 20 6 0 10 -18 10 -40 0 -22 -4 -40 -10 -40 -6 0 -10 -47 -10 -120 0 -73
4 -120 10 -120 6 0 10 -53 10 -140 0 -87 4 -140 10 -140 6 0 10 -22 10 -50 0
-27 5 -50 10 -50 6 0 10 30 10 70 0 40 4 70 10 70 6 0 10 18 10 40 0 22 5 40
10 40 6 0 10 23 10 50 0 28 5 50 10 50 6 0 10 9 10 20 0 11 5 20 10 20 6 0 10
-13 10 -30 0 -16 5 -30 10 -30 6 0 10 -9 10 -20 0 -11 5 -20 10 -20 6 0 10 -9
10 -20 0 -11 5 -20 10 -20 6 0 10 47 10 120 0 73 -4 120 -10 120 -6 0 -10 67
-10 180 0 113 -4 180 -10 180 -6 0 -10 40 -10 100 0 60 4 100 10 100 6 0 10
-4 10 -10 0 -15 29 -12 46 4 18 18 18 34 0 52 -18 17 -42 18 -50 2 -5 -10 -7
-10 -12 0 -7 16 -41 16 -46 0 -3 -8 -26 9 -56 40 -28 28 -56 52 -62 52 -16 0
-60 47 -60 65 0 8 5 15 10 15 6 0 10 16 10 35 0 27 -8 44 -35 70 -46 47 -87
47 -132 0z m113 -19 c8 -8 14 -29 14 -46 0 -40 -20 -60 -60 -60 -17 0 -38 6
-46 14 -17 18 -18 72 -1 91 16 19 74 19 93 1z m-111 -111 c25 -24 33 -55 15
-55 -5 0 -10 -13 -10 -30 0 -29 -1 -30 -50 -30 -27 0 -50 5 -50 10 0 6 -13 10
-30 10 -16 0 -30 -4 -30 -10 0 -6 -27 -10 -60 -10 -33 0 -60 4 -60 10 0 6 9
10 20 10 11 0 20 5 20 10 0 6 9 10 20 10 11 0 20 5 20 10 0 6 8 10 18 10 10 0
24 9 32 20 8 11 22 20 32 20 10 0 18 5 18 10 0 6 9 10 20 10 11 0 20 5 20 10
0 18 31 10 55 -15z m165 -45 c15 -16 33 -30 39 -30 12 0 61 -44 61 -55 0 -3
-27 -5 -60 -5 -33 0 -60 4 -60 10 0 6 -13 10 -30 10 -16 0 -30 -4 -30 -10 0
-5 -13 -10 -30 -10 -16 0 -30 5 -30 10 0 6 5 10 10 10 6 0 10 12 10 26 0 29
21 54 44 54 9 0 16 5 16 10 0 20 33 9 60 -20z m-440 -100 c0 -6 27 -10 60 -10
53 0 60 -2 60 -20 0 -16 -7 -20 -30 -20 -21 0 -30 -5 -30 -16 0 -15 -23 -44
-34 -44 -3 0 -6 14 -6 30 0 27 -3 30 -30 30 -27 0 -30 3 -30 30 0 23 4 30 20
30 11 0 20 -4 20 -10z m260 -20 c0 -5 -4 -10 -10 -10 -5 0 -10 -9 -10 -20 0
-11 -4 -20 -10 -20 -5 0 -10 5 -10 10 0 6 -9 10 -20 10 -13 0 -20 7 -20 20 0
17 7 20 40 20 22 0 40 -4 40 -10z m100 -30 c0 -17 -7 -20 -40 -20 -33 0 -40 3
-40 20 0 17 7 20 40 20 33 0 40 -3 40 -20z m200 10 c0 -5 -7 -10 -16 -10 -20
0 -44 -24 -44 -44 0 -9 -8 -16 -20 -16 -16 0 -20 7 -20 30 0 23 -4 30 -20 30
-11 0 -20 5 -20 10 0 6 30 10 70 10 40 0 70 -4 70 -10z m40 -20 c0 -5 -4 -10
-10 -10 -5 0 -10 5 -10 10 0 6 5 10 10 10 6 0 10 -4 10 -10z m-580 -168 c0
-10 9 -24 20 -32 14 -10 20 -26 20 -52 0 -21 -4 -38 -10 -38 -5 0 -10 9 -10
20 0 11 -4 20 -10 20 -5 0 -10 9 -10 20 0 11 -4 20 -10 20 -5 0 -10 14 -10 30
0 17 5 30 10 30 6 0 10 -8 10 -18z m346 -36 c16 -17 20 -106 4 -106 -5 0 -10
-9 -10 -20 0 -11 -4 -20 -10 -20 -5 0 -10 -9 -10 -20 0 -11 -4 -20 -10 -20 -5
0 -10 -9 -10 -20 0 -11 -4 -20 -10 -20 -5 0 -10 -9 -10 -20 0 -11 -4 -20 -10
-20 -5 0 -10 18 -10 40 0 22 5 40 10 40 6 0 10 23 10 50 0 28 5 50 10 50 6 0
10 9 10 20 0 11 5 20 10 20 6 0 10 14 10 30 0 34 5 37 26 16z m234 -266 c0
-22 -4 -40 -10 -40 -5 0 -10 -13 -10 -30 0 -16 -4 -30 -10 -30 -5 0 -10 -13
-10 -30 0 -16 -4 -30 -10 -30 -5 0 -10 18 -10 40 0 22 5 40 10 40 6 0 10 18
10 40 0 22 5 40 10 40 6 0 10 9 10 20 0 11 5 20 10 20 6 0 10 -18 10 -40z
m2060 -226 c0 -26 -6 -51 -14 -60 -17 -16 -106 -20 -106 -4 0 6 5 10 10 10 6
0 10 7 10 15 0 9 11 27 25 40 13 14 31 25 40 25 8 0 15 5 15 10 0 6 5 10 10
10 6 0 10 -21 10 -46z m60 36 c0 -5 7 -10 15 -10 20 0 65 -45 65 -65 0 -8 5
-15 10 -15 6 0 10 -4 10 -10 0 -16 -89 -12 -106 4 -16 17 -20 106 -4 106 6 0
10 -4 10 -10z m-74 -184 c16 -17 20 -106 4 -106 -5 0 -10 5 -10 10 0 6 -7 10
-15 10 -20 0 -65 45 -65 65 0 8 -4 15 -10 15 -5 0 -10 5 -10 10 0 16 89 12
106 -4z m174 4 c0 -5 -4 -10 -10 -10 -5 0 -10 -7 -10 -15 0 -9 -11 -27 -25
-40 -13 -14 -31 -25 -40 -25 -8 0 -15 -4 -15 -10 0 -5 -4 -10 -10 -10 -14 0
-12 88 3 105 14 16 107 21 107 5z m4666 -784 c10 -11 14 -41 14 -116 0 -101
-9 -130 -40 -130 -17 0 -40 26 -40 44 0 9 -4 16 -10 16 -5 0 -10 18 -10 40 0
22 -4 40 -10 40 -5 0 -10 9 -10 20 0 11 -4 20 -10 20 -18 0 -11 30 13 55 25
27 80 33 103 11z m-180 -80 c8 -8 14 -22 14 -30 0 -9 5 -16 10 -16 6 0 10 -8
10 -18 0 -10 9 -24 20 -32 34 -24 23 -30 -56 -30 -85 0 -104 11 -104 60 0 58
70 102 106 66z m-4511 -51 c29 -28 31 -41 11 -61 -17 -16 -146 -20 -146 -4 0
6 -9 10 -20 10 -16 0 -20 7 -20 30 0 23 4 30 20 30 13 0 20 -7 20 -20 0 -11 4
-20 8 -20 4 0 14 9 22 20 8 11 22 20 32 20 10 0 18 5 18 10 0 18 31 10 55 -15z
m-1263 -452 l98 -98 0 -305 0 -305 -97 -97 -98 -98 -305 0 -305 0 93 93 92 92
0 315 0 315 -92 92 -93 93 305 0 305 0 97 -97z m418 -318 l0 -221 55 -54 55
-54 55 54 55 54 0 221 0 221 50 49 50 49 50 -49 50 -49 0 -221 0 -221 55 -54
55 -54 55 54 55 54 0 221 0 220 100 100 100 100 0 -345 0 -345 -155 -155 -155
-155 -105 105 -105 105 -105 -105 -105 -105 -155 155 -155 155 0 345 0 345
100 -100 100 -100 0 -220z m2222 318 l98 -98 0 -115 0 -115 -97 -97 c-84 -84
-102 -98 -130 -98 -18 0 -33 -3 -33 -8 0 -4 59 -66 130 -137 l130 -130 0 -125
0 -125 -203 203 c-111 111 -206 202 -210 202 -4 0 -7 -15 -7 -33 0 -28 -14
-46 -100 -132 l-100 -100 0 410 0 410 -92 92 -93 93 305 0 305 0 97 -97z m418
-318 l0 -221 55 -54 55 -54 55 54 55 54 0 221 0 220 100 100 100 100 0 -345 0
-345 -155 -155 -155 -155 -155 155 -155 155 0 345 0 345 100 -100 100 -100 0
-220z m1065 315 l-100 -100 -100 0 c-65 0 -105 -4 -113 -12 -8 -8 -12 -45 -12
-100 l0 -88 212 0 213 0 -100 -100 -100 -100 -112 0 -113 0 0 -88 c0 -55 4
-92 12 -100 8 -8 48 -12 113 -12 l100 0 100 -100 100 -100 -225 0 -225 0 -87
87 -88 88 0 325 0 325 87 87 88 88 225 0 225 0 -100 -100z m740 0 l-100 -100
-89 0 c-78 0 -93 -3 -113 -22 -32 -30 -33 -121 -1 -155 20 -21 30 -23 122 -23
l101 0 87 -87 88 -88 0 -125 0 -125 -88 -88 -87 -87 -225 0 -225 0 100 100
100 100 89 0 c78 0 93 3 113 22 32 30 33 121 1 155 -19 21 -30 23 -112 23
l-91 0 -97 97 -98 98 0 105 0 105 97 97 98 98 215 0 215 0 -100 -100z m-3018
-62 l153 -153 0 -345 0 -345 -100 100 -100 100 0 52 0 53 -110 0 -110 0 0 -53
0 -52 -100 -100 -100 -100 0 345 0 345 152 152 c84 84 155 153 158 153 3 0 73
-69 157 -152z m-2242 -1058 c-35 -36 -44 -40 -90 -40 -28 0 -56 -5 -63 -12 -7
-7 -12 -33 -12 -58 0 -25 5 -51 12 -58 13 -13 108 -17 108 -5 0 4 -19 27 -42
50 l-42 43 82 0 82 0 0 -142 0 -142 -40 39 c-22 21 -40 45 -40 52 0 9 -18 13
-62 13 -58 0 -65 2 -100 37 -37 36 -38 38 -38 112 0 73 1 76 37 113 l37 38
105 0 105 0 -39 -40z m155 -107 l0 -73 63 0 c60 0 65 -2 102 -40 l39 -40 -142
0 -142 0 0 152 0 152 40 -39 c39 -39 40 -40 40 -112z m422 110 c37 -36 38 -38
38 -112 0 -73 -1 -76 -37 -113 -35 -36 -40 -38 -102 -38 -62 0 -67 2 -103 37
-37 36 -38 38 -38 112 0 73 1 76 37 113 35 36 40 38 102 38 62 0 67 -2 103
-37z m320 0 c54 -53 53 -92 -4 -150 l-42 -43 42 -43 c37 -37 42 -48 42 -87 l0
-45 -95 95 -95 94 -45 -44 -45 -44 0 119 0 119 -32 33 -32 33 134 0 134 0 38
-37z m218 -83 c8 0 43 28 77 62 l63 62 0 -45 c0 -41 -5 -49 -50 -94 l-50 -49
0 -110 0 -110 -40 39 c-39 38 -40 40 -40 110 l0 71 -50 49 c-45 45 -50 53 -50
94 l0 45 63 -62 c34 -34 69 -62 77 -62z m622 83 c37 -36 38 -38 38 -112 0 -73
-1 -76 -37 -113 l-37 -38 -135 0 -135 0 32 33 c31 32 32 36 32 117 0 81 -1 85
-32 117 l-32 33 134 0 134 0 38 -37z m323 -3 c-37 -38 -42 -40 -102 -40 -56 0
-63 -2 -63 -20 0 -18 7 -20 72 -20 l72 0 -29 -30 c-23 -24 -37 -30 -72 -30
-36 0 -43 -3 -43 -20 0 -18 7 -20 63 -20 60 0 65 -2 102 -40 l39 -40 -174 0
-174 0 32 33 c31 32 32 36 32 117 0 81 -1 85 -32 117 l-32 33 174 0 174 0 -39
-40z m237 -17 c57 -56 58 -58 58 -113 0 -52 -3 -59 -40 -95 l-40 -39 0 42 0
42 -60 0 -60 0 0 -42 0 -42 -40 39 c-37 36 -40 43 -40 94 0 54 1 57 57 113 74
75 90 75 165 1z m243 17 c-21 -22 -45 -40 -52 -40 -10 0 -13 -27 -13 -112 l0
-112 -40 39 c-39 39 -40 40 -40 112 0 53 -4 73 -13 73 -7 0 -31 18 -52 40
l-39 40 144 0 144 0 -39 -40z m156 -60 c42 0 59 4 59 13 0 7 18 31 40 52 l40
39 0 -115 0 -115 -40 -39 -40 -39 0 62 0 62 -60 0 c-56 0 -60 -2 -60 -23 0
-14 -16 -39 -40 -62 l-40 -39 0 114 0 114 38 39 37 38 3 -50 3 -51 60 0z m541
43 c57 -56 58 -58 58 -113 0 -52 -3 -59 -40 -95 l-40 -39 0 42 0 42 -60 0 -60
0 0 -42 0 -42 -40 39 c-37 36 -40 43 -40 94 0 54 1 57 57 113 74 75 90 75 165
1z m203 -23 c44 -44 83 -80 87 -80 5 0 8 19 8 43 0 37 6 48 40 82 l40 39 0
-152 c0 -116 -3 -152 -13 -152 -7 0 -48 36 -92 80 -44 44 -83 80 -87 80 -5 0
-8 -19 -8 -43 0 -37 -6 -48 -40 -82 l-40 -39 0 152 c0 116 3 152 13 152 7 0
48 -36 92 -80z m517 43 c37 -36 38 -38 38 -112 0 -73 -1 -76 -37 -113 l-37
-38 -135 0 -135 0 32 33 c31 32 32 36 32 117 0 81 -1 85 -32 117 l-32 33 134
0 134 0 38 -37z m298 -110 l0 -73 63 0 c60 0 65 -2 102 -40 l39 -40 -142 0
-142 0 0 152 0 152 40 -39 c39 -39 40 -40 40 -112z m422 110 c37 -36 38 -38
38 -112 0 -73 -1 -76 -37 -113 -35 -36 -40 -38 -102 -38 -62 0 -67 2 -103 37
-37 36 -38 38 -38 112 0 73 1 76 37 113 35 36 40 38 102 38 62 0 67 -2 103
-37z m320 0 c37 -36 38 -38 38 -112 0 -73 -1 -76 -37 -113 -35 -36 -40 -38
-102 -38 -62 0 -67 2 -103 37 -37 36 -38 38 -38 112 0 73 1 76 37 113 35 36
40 38 102 38 62 0 67 -2 103 -37z m263 -3 c-21 -22 -45 -40 -52 -40 -10 0 -13
-27 -13 -112 l0 -112 -40 39 c-39 39 -40 40 -40 112 0 53 -4 73 -13 73 -7 0
-31 18 -52 40 l-39 40 144 0 144 0 -39 -40z m-3985 -292 l0 -72 -40 39 c-31
30 -40 47 -40 72 0 32 1 33 40 33 l40 0 0 -72z"/>
<path d="M2150 1200 l0 -300 67 0 c66 0 68 1 110 42 l43 42 0 215 0 215 -42
43 c-41 42 -43 43 -110 43 l-68 0 0 -300z"/>
<path d="M4790 1400 l0 -100 78 0 c75 0 79 1 110 33 44 46 44 91 -1 135 -31
30 -37 32 -110 32 l-77 0 0 -100z"/>
<path d="M4102 1387 l-52 -53 0 -67 0 -67 110 0 110 0 0 68 0 68 -53 52 c-29
29 -55 52 -58 52 -2 0 -28 -24 -57 -53z"/>
<path d="M2502 428 c-7 -7 -12 -33 -12 -58 0 -55 13 -70 60 -70 47 0 60 15 60
70 0 55 -13 70 -60 70 -20 0 -41 -5 -48 -12z"/>
<path d="M2810 410 c0 -29 1 -30 49 -30 31 0 53 5 61 15 21 26 -5 45 -61 45
-48 0 -49 -1 -49 -30z"/>
<path d="M3650 370 l0 -70 48 0 c60 0 72 12 72 70 0 58 -12 70 -72 70 l-48 0
0 -70z"/>
<path d="M4262 428 c-7 -7 -12 -20 -12 -30 0 -14 8 -18 40 -18 32 0 40 4 40
18 0 22 -19 42 -40 42 -9 0 -21 -5 -28 -12z"/>
<path d="M5202 428 c-7 -7 -12 -20 -12 -30 0 -14 8 -18 40 -18 32 0 40 4 40
18 0 22 -19 42 -40 42 -9 0 -21 -5 -28 -12z"/>
<path d="M5870 370 l0 -70 48 0 c60 0 72 12 72 70 0 58 -12 70 -72 70 l-48 0
0 -70z"/>
<path d="M6602 428 c-7 -7 -12 -33 -12 -58 0 -55 13 -70 60 -70 47 0 60 15 60
70 0 55 -13 70 -60 70 -20 0 -41 -5 -48 -12z"/>
<path d="M6922 428 c-7 -7 -12 -33 -12 -58 0 -55 13 -70 60 -70 47 0 60 15 60
70 0 55 -13 70 -60 70 -20 0 -41 -5 -48 -12z"/>
<path d="M5140 3390 c0 -43 3 -50 20 -50 11 0 20 5 20 10 0 6 5 10 10 10 6 0
10 -43 10 -110 0 -67 -4 -110 -10 -110 -5 0 -10 -18 -10 -40 0 -22 -4 -40 -10
-40 -5 0 -10 -13 -10 -30 0 -16 -4 -30 -10 -30 -6 0 -10 -27 -10 -60 l0 -60
-30 0 c-38 0 -38 -5 2 -42 25 -23 29 -31 18 -38 -11 -7 -7 -15 18 -38 37 -35
39 -42 12 -42 -11 0 -20 -4 -20 -8 0 -4 9 -14 20 -22 24 -17 27 -50 4 -50 -9
0 -29 14 -44 30 -15 17 -31 30 -34 30 -3 0 -6 -17 -6 -38 0 -26 6 -42 20 -52
24 -17 27 -50 5 -50 -19 0 -85 -64 -85 -82 0 -8 -9 -20 -20 -28 -17 -12 -20
-26 -20 -82 0 -61 2 -68 20 -68 11 0 20 -4 20 -10 0 -5 18 -10 40 -10 22 0 40
-4 40 -10 0 -5 14 -10 30 -10 21 0 30 5 30 16 0 8 7 22 15 30 13 13 18 12 40
-10 14 -14 25 -30 25 -36 0 -20 28 -40 54 -40 14 0 26 -4 26 -10 0 -5 14 -10
30 -10 23 0 30 4 30 20 0 16 7 20 30 20 23 0 30 -4 30 -20 0 -29 69 -29 90 0
8 11 20 20 28 20 7 0 24 11 37 25 23 22 25 32 25 120 0 57 -4 95 -10 95 -5 0
-10 23 -10 50 0 28 -4 50 -10 50 -5 0 -10 9 -10 20 0 11 5 20 10 20 6 0 10 28
10 65 0 57 -3 69 -25 90 -13 14 -31 25 -40 25 -9 0 -15 9 -15 26 0 29 -21 54
-44 54 -13 0 -16 12 -16 60 0 33 4 60 10 60 6 0 10 14 10 30 0 17 5 30 10 30
6 0 10 18 10 40 0 22 5 40 10 40 6 0 10 43 10 110 0 67 4 110 10 110 6 0 10
-4 10 -10 0 -5 9 -10 20 -10 17 0 20 7 20 50 0 49 -1 50 -29 50 -16 0 -32 -6
-35 -12 -5 -10 -7 -10 -12 0 -4 9 -43 12 -144 12 -101 0 -140 -3 -144 -12 -5
-10 -7 -10 -12 0 -3 6 -19 12 -35 12 -28 0 -29 -1 -29 -50z m200 -130 c0 -33
-4 -60 -10 -60 -5 0 -10 9 -10 20 0 13 -7 20 -20 20 -13 0 -20 7 -20 20 0 11
-4 20 -10 20 -5 0 -10 9 -10 20 0 17 7 20 40 20 l40 0 0 -60z m120 40 c0 -11
-4 -20 -10 -20 -5 0 -10 -9 -10 -20 0 -13 -7 -20 -20 -20 -13 0 -20 -7 -20
-20 0 -11 -4 -20 -10 -20 -6 0 -10 27 -10 60 l0 60 40 0 c33 0 40 -3 40 -20z"/>
<path d="M4760 3230 c0 -5 -9 -10 -20 -10 -11 0 -20 -4 -20 -10 0 -5 -11 -10
-25 -10 -29 0 -95 -59 -95 -85 0 -8 -4 -15 -10 -15 -5 0 -10 -7 -10 -15 0 -9
-11 -27 -25 -40 -24 -25 -55 -33 -55 -15 0 6 -27 10 -60 10 -33 0 -60 -4 -60
-10 0 -5 -22 -10 -50 -10 -43 0 -50 -3 -50 -20 0 -13 -7 -20 -20 -20 -13 0
-20 -7 -20 -20 0 -16 -7 -20 -30 -20 -16 0 -30 5 -30 10 0 6 -7 10 -15 10 -25
0 -65 46 -65 75 0 14 -2 25 -5 25 -16 0 -55 -53 -55 -75 0 -14 -4 -25 -10 -25
-5 0 -10 -20 -10 -45 0 -41 5 -50 45 -90 49 -50 95 -62 95 -25 0 11 5 20 10
20 6 0 10 -16 10 -36 0 -29 -8 -44 -50 -84 -27 -27 -50 -56 -50 -64 0 -9 -4
-16 -10 -16 -5 0 -10 -9 -10 -20 0 -11 -4 -20 -10 -20 -5 0 -10 -9 -10 -20 0
-11 -4 -20 -10 -20 -5 0 -10 -22 -10 -50 0 -43 3 -50 20 -50 11 0 20 -4 20
-10 0 -5 14 -10 30 -10 17 0 30 -4 30 -10 0 -5 23 -10 50 -10 43 0 50 3 50 20
0 27 7 25 40 -10 26 -28 32 -30 104 -30 69 0 76 -2 76 -20 0 -16 7 -20 38 -20
26 0 42 6 52 20 8 11 22 20 32 20 11 0 18 7 18 18 0 10 9 24 20 32 18 13 20
26 20 152 0 85 -4 138 -10 138 -5 0 -10 9 -10 20 0 11 5 20 10 20 6 0 10 11
10 25 0 18 19 45 65 90 35 36 67 65 70 65 3 0 5 -26 5 -58 0 -46 -4 -60 -20
-72 -14 -10 -20 -26 -20 -52 0 -34 3 -38 26 -38 17 0 39 14 64 40 21 22 46 40
54 40 9 0 16 5 16 10 0 6 7 10 15 10 26 0 85 66 85 95 0 14 5 25 10 25 6 0 10
9 10 20 0 11 5 20 10 20 6 0 10 14 10 30 0 36 -27 41 -50 10 -8 -11 -18 -20
-22 -20 -4 0 -8 9 -8 20 0 17 -7 20 -40 20 -22 0 -40 3 -40 6 0 11 29 34 44
34 20 0 21 27 2 46 -19 19 -46 18 -46 -2 0 -15 -23 -44 -34 -44 -3 0 -6 18 -6
40 0 33 -3 40 -20 40 -11 0 -20 4 -20 8 0 4 9 14 20 22 31 23 26 50 -10 50
-16 0 -30 -4 -30 -10z m-60 -96 c0 -3 -6 -12 -14 -20 -20 -19 -26 -18 -26 6 0
13 7 20 20 20 11 0 20 -3 20 -6z m60 -14 c0 -11 -4 -20 -10 -20 -5 0 -10 9
-10 20 0 11 5 20 10 20 6 0 10 -9 10 -20z m0 -46 c0 -3 -6 -12 -14 -20 -20
-19 -26 -18 -26 6 0 13 7 20 20 20 11 0 20 -3 20 -6z m-60 -24 c0 -5 -9 -10
-20 -10 -11 0 -20 5 -20 10 0 6 9 10 20 10 11 0 20 -4 20 -10z m20 -75 c0 -3
-20 -26 -45 -50 -49 -50 -55 -53 -55 -29 0 9 -9 25 -21 35 -33 28 -7 48 64 49
31 0 57 -2 57 -5z m140 -15 c0 -13 -7 -20 -20 -20 -23 0 -25 5 -7 25 17 20 27
18 27 -5z m60 10 c0 -5 -9 -10 -20 -10 -11 0 -20 5 -20 10 0 6 9 10 20 10 11
0 20 -4 20 -10z m-800 -46 c0 -15 -23 -44 -34 -44 -3 0 -6 14 -6 30 0 23 4 30
20 30 12 0 20 -7 20 -16z m720 -24 c0 -11 -4 -20 -10 -20 -5 0 -10 9 -10 20 0
11 5 20 10 20 6 0 10 -9 10 -20z m80 0 c0 -13 -7 -20 -20 -20 -23 0 -25 5 -7
25 17 20 27 18 27 -5z m-760 -40 c0 -13 -7 -20 -20 -20 -23 0 -25 5 -7 25 17
20 27 18 27 -5z"/>
<path d="M2780 3162 c0 -10 9 -24 20 -32 11 -8 20 -22 20 -32 0 -15 -9 -18
-50 -18 -27 0 -50 5 -50 10 0 6 -35 10 -86 10 -83 0 -87 -1 -114 -30 -15 -16
-38 -30 -49 -30 -19 0 -71 -40 -71 -55 0 -3 36 -5 80 -5 47 0 80 4 80 10 0 6
8 10 18 10 10 0 24 9 32 20 10 14 26 20 52 20 21 0 38 -4 38 -10 0 -5 14 -10
30 -10 49 0 41 -41 -20 -100 -27 -27 -50 -51 -50 -54 0 -3 14 -6 30 -6 17 0
30 5 30 10 0 6 5 10 10 10 6 0 10 -18 10 -40 0 -39 -1 -40 -36 -40 -35 0 -64
18 -64 40 0 17 -26 40 -44 40 -9 0 -16 5 -16 10 0 6 -8 10 -18 10 -10 0 -24 9
-32 20 -18 25 -50 26 -50 2 0 -10 9 -24 20 -32 11 -8 20 -20 20 -28 0 -18 46
-62 65 -62 21 0 19 -7 -10 -35 -28 -29 -35 -31 -35 -9 0 20 -24 44 -44 44 -9
0 -16 5 -16 10 0 6 -9 10 -20 10 -11 0 -20 5 -20 10 0 6 -9 10 -20 10 -11 0
-20 -4 -20 -8 0 -4 9 -14 20 -22 11 -8 20 -22 20 -32 0 -10 5 -18 10 -18 6 0
10 -8 10 -18 0 -10 9 -24 20 -32 17 -12 20 -26 20 -92 0 -70 -2 -78 -19 -78
-11 0 -21 -5 -23 -12 -6 -16 -58 35 -58 57 0 8 -4 15 -10 15 -5 0 -10 9 -10
20 0 26 -6 25 -35 -5 -30 -29 -31 -35 -5 -35 11 0 20 -4 20 -10 0 -5 7 -10 16
-10 15 0 44 -23 44 -34 0 -3 -18 -6 -40 -6 -22 0 -40 5 -40 10 0 6 -13 10 -30
10 -30 0 -40 -14 -17 -24 10 -5 10 -7 0 -12 -23 -10 -13 -24 17 -24 17 0 30 5
30 10 0 6 14 10 30 10 30 0 41 -15 18 -22 -16 -6 76 -98 97 -98 11 0 15 -11
15 -40 0 -33 -3 -40 -20 -40 -29 0 -26 -45 5 -75 24 -25 25 -25 225 -25 200 0
201 0 225 25 31 30 34 75 5 75 -15 0 -20 7 -20 25 0 26 40 75 61 75 6 0 24 14
39 30 15 17 33 30 39 30 26 0 61 49 61 85 0 19 5 35 10 35 6 0 10 18 10 40 0
22 5 40 10 40 6 0 10 9 10 20 0 11 -4 20 -10 20 -20 0 -9 33 20 60 17 15 30
35 30 44 0 26 -30 18 -63 -16 -19 -21 -32 -28 -34 -20 -5 14 -43 17 -43 2 0
-5 -4 -10 -10 -10 -5 0 -10 9 -10 19 0 11 -6 22 -12 25 -10 5 -10 7 0 12 27
13 2 64 -32 64 -9 0 -16 5 -16 10 0 6 5 10 10 10 6 0 10 21 10 46 0 40 5 50
40 84 41 40 52 70 24 70 -9 0 -29 -13 -44 -30 -27 -29 -60 -40 -60 -20 0 6
-11 10 -25 10 -26 0 -75 39 -75 60 0 16 -47 60 -65 60 -8 0 -15 -8 -15 -18z
m120 -152 c0 -5 7 -10 16 -10 8 0 22 -6 30 -14 16 -17 19 -46 4 -46 -5 0 -10
-7 -10 -16 0 -8 -6 -22 -14 -30 -17 -16 -66 -19 -66 -4 0 6 -7 10 -16 10 -8 0
-22 6 -30 14 -16 17 -19 46 -4 46 6 0 10 7 10 15 0 9 6 22 13 30 14 16 67 20
67 5z m-14 -185 c13 -13 12 -18 -10 -40 -14 -14 -30 -25 -36 -25 -20 0 -40 28
-40 54 0 23 4 26 36 26 19 0 42 -7 50 -15z m200 -119 c18 -19 18 -34 -1 -52
-13 -14 -17 -14 -30 0 -18 18 -19 32 -2 51 15 18 16 18 33 1z m-100 -20 c8 -8
14 -20 14 -26 0 -16 47 -60 65 -60 8 0 15 -7 15 -15 0 -20 -45 -65 -65 -65 -8
0 -15 -4 -15 -10 0 -5 -13 -10 -30 -10 -16 0 -30 -4 -30 -10 0 -5 -4 -10 -10
-10 -5 0 -10 9 -10 20 0 11 -4 20 -10 20 -5 0 -10 9 -10 20 0 11 -4 20 -10 20
-5 0 -10 9 -10 20 0 11 5 20 10 20 6 0 10 14 10 30 0 22 5 30 18 30 10 0 24 9
32 20 17 24 18 24 36 6z"/>
<path d="M6360 3150 c0 -6 -37 -10 -90 -10 -49 0 -90 -4 -90 -8 0 -4 9 -14 20
-22 32 -23 24 -30 -40 -30 -33 0 -60 -4 -60 -10 0 -5 5 -10 10 -10 6 0 10 -4
10 -10 0 -5 -13 -10 -30 -10 -16 0 -30 -4 -30 -10 0 -5 5 -10 10 -10 6 0 10
-9 10 -20 0 -13 -7 -20 -20 -20 -11 0 -20 5 -20 10 0 6 -22 10 -50 10 -27 0
-50 -3 -50 -6 0 -4 10 -15 22 -26 19 -16 20 -21 8 -28 -12 -7 -10 -13 10 -30
20 -17 22 -23 10 -30 -12 -7 -11 -12 8 -28 12 -11 22 -27 22 -36 0 -9 5 -16
10 -16 6 0 10 -27 10 -60 l0 -60 -30 0 c-16 0 -30 5 -30 10 0 6 -13 10 -30 10
l-30 0 0 -80 c0 -44 2 -80 5 -80 13 0 55 50 55 65 0 10 10 15 30 15 23 0 30
-4 30 -20 0 -15 7 -20 26 -20 17 0 39 -14 64 -40 38 -40 39 -40 114 -40 69 0
76 -2 76 -20 0 -16 7 -20 36 -20 28 0 43 8 74 40 l38 40 211 0 211 0 85 85
c47 47 85 87 85 90 0 3 -121 5 -270 5 -263 0 -270 0 -270 20 0 11 -4 20 -10
20 -5 0 -10 18 -10 40 0 22 -4 40 -10 40 -5 0 -10 14 -10 30 0 17 5 30 10 30
6 0 10 37 10 90 0 53 4 90 10 90 15 0 12 49 -4 66 -17 16 -146 20 -146 4z
m266 -484 c20 -21 18 -26 -12 -26 -23 0 -54 20 -54 34 0 12 52 5 66 -8z m120
0 c20 -21 18 -26 -12 -26 -23 0 -54 20 -54 34 0 12 52 5 66 -8z m120 0 c20
-21 18 -26 -12 -26 -23 0 -54 20 -54 34 0 12 52 5 66 -8z m-226 -52 c0 -14
-31 -34 -54 -34 -29 0 -32 5 -13 25 11 14 67 21 67 9z m120 0 c0 -14 -31 -34
-54 -34 -29 0 -32 5 -13 25 11 14 67 21 67 9z m120 0 c0 -14 -31 -34 -54 -34
-29 0 -32 5 -13 25 11 14 67 21 67 9z"/>
<path d="M6140 2300 c0 -11 -4 -20 -10 -20 -5 0 -10 -7 -10 -16 0 -9 -14 -29
-31 -45 -18 -16 -29 -32 -26 -36 4 -3 20 8 36 26 16 17 36 31 45 31 9 0 16 5
16 10 0 6 9 10 20 10 11 0 20 5 20 10 0 6 -9 10 -20 10 -13 0 -20 7 -20 20 0
11 -4 20 -10 20 -5 0 -10 -9 -10 -20z"/>
</g>
</svg>
